<?xml version="1.0" standalone="no"?>
<!DOCTYPE svg PUBLIC "-//W3C//DTD SVG 20010904//EN"
 "http://www.w3.org/TR/2001/REC-SVG-20010904/DTD/svg10.dtd">
<svg version="1.0" xmlns="http://www.w3.org/2000/svg"
 width="512.000000pt" height="512.000000pt" viewBox="0 0 512.000000 512.000000"
 preserveAspectRatio="xMidYMid meet">

<g transform="translate(0.000000,512.000000) scale(0.100000,-0.100000)"
fill="#000000" stroke="none">
<path d="M2415 5086 c-13 -13 -27 -35 -30 -49 -4 -16 17 -114 59 -268 36 -134
66 -250 66 -256 0 -10 -31 -13 -124 -13 l-123 0 -77 98 c-42 55 -88 104 -102
110 -16 8 -101 12 -250 12 -354 0 -354 0 -218 -352 47 -123 86 -232 86 -243
-1 -11 -39 -120 -86 -242 -47 -123 -86 -237 -86 -253 0 -41 25 -76 62 -89 41
-14 445 -15 485 0 21 7 55 42 107 110 l77 99 125 0 c91 0 124 -3 124 -12 0 -7
-30 -122 -66 -255 -70 -258 -72 -276 -29 -319 24 -24 26 -24 225 -24 217 0
244 5 289 54 13 14 106 144 205 288 l181 263 160 6 c138 4 169 9 226 30 143
55 240 133 290 235 27 54 31 72 27 121 -2 34 -14 78 -28 107 -49 98 -199 205
-337 241 -37 10 -105 15 -195 15 l-137 0 -89 128 c-49 70 -137 198 -196 284
-142 206 -125 198 -395 198 -200 0 -202 0 -226 -24z m580 -467 c110 -160 209
-296 220 -302 12 -8 92 -14 206 -17 l185 -5 76 -38 c83 -40 138 -94 138 -132
0 -36 -70 -101 -148 -138 -66 -32 -70 -32 -253 -37 -149 -4 -190 -8 -210 -21
-13 -10 -112 -145 -219 -302 l-195 -286 -87 -1 c-58 0 -88 4 -88 11 0 6 30
121 66 254 62 225 66 246 54 276 -27 64 -48 69 -310 69 -168 0 -242 -4 -260
-13 -13 -7 -60 -56 -103 -110 l-78 -97 -104 0 c-58 0 -105 3 -105 8 0 4 32 93
71 198 l71 190 -71 188 c-39 104 -71 193 -71 197 0 5 47 9 104 9 l105 0 83
-102 c50 -61 93 -105 108 -109 14 -4 125 -7 248 -8 254 -1 281 4 309 63 16 35
16 37 -50 280 -37 134 -67 249 -67 255 0 7 30 11 88 11 l87 -1 200 -290z"/>
<path d="M1160 4384 c-146 -57 -351 -156 -477 -229 -137 -81 -330 -213 -348
-238 -41 -59 9 -152 81 -151 32 0 60 14 149 76 199 136 430 261 628 338 168
67 187 77 202 113 18 43 9 82 -27 112 -41 35 -74 31 -208 -21z"/>
<path d="M1092 3896 c-140 -68 -298 -160 -334 -194 -21 -20 -28 -35 -28 -65 0
-49 13 -73 50 -92 44 -23 58 -19 160 41 52 31 150 84 219 119 69 34 135 73
146 85 29 32 26 93 -6 125 -45 46 -81 42 -207 -19z"/>
<path d="M2320 2849 c-415 -41 -820 -182 -1159 -406 -616 -404 -1024 -1039
-1132 -1756 -23 -157 -35 -406 -24 -531 6 -80 10 -93 35 -118 45 -44 124 -37
152 15 8 15 12 92 13 247 2 248 15 360 66 570 114 463 371 885 733 1201 l89
78 51 -44 c56 -50 160 -107 222 -124 22 -6 103 -18 180 -26 276 -30 320 -49
375 -161 30 -61 33 -75 33 -153 -1 -138 -23 -181 -161 -320 -142 -142 -167
-186 -167 -291 0 -64 5 -86 33 -150 57 -125 45 -228 -41 -362 -56 -88 -180
-205 -297 -282 -112 -74 -131 -101 -111 -160 27 -84 96 -88 213 -14 254 161
415 362 463 577 23 102 15 184 -30 299 -34 86 -35 94 -22 125 8 17 62 79 120
137 82 80 115 121 141 172 110 221 75 493 -84 641 -94 88 -175 115 -425 142
-82 9 -170 24 -198 35 -49 18 -118 64 -118 78 0 12 167 107 290 165 320 151
635 220 1000 220 374 0 692 -71 1019 -229 73 -35 144 -64 158 -64 44 0 81 27
94 69 22 75 -16 112 -206 199 -214 97 -450 167 -690 203 -152 23 -471 33 -615
18z"/>
<path d="M4072 2308 c-34 -9 -72 -57 -72 -91 0 -35 31 -79 67 -93 69 -29 133
16 133 94 0 68 -57 108 -128 90z"/>
<path d="M2640 2281 c-68 -21 -139 -82 -173 -148 -44 -84 -51 -228 -18 -326
79 -228 311 -368 586 -354 273 15 463 153 506 368 23 118 -29 236 -131 293
-53 30 -60 31 -175 31 l-120 1 -108 58 c-59 32 -131 64 -160 72 -56 15 -166
17 -207 5z m220 -229 c30 -16 89 -46 130 -68 l75 -39 121 0 c140 0 154 -6 154
-67 0 -119 -113 -203 -300 -222 -73 -8 -185 11 -240 39 -54 28 -122 97 -146
150 -41 87 -26 205 29 234 34 17 116 4 177 -27z"/>
<path d="M4359 1971 c-22 -23 -29 -39 -29 -69 0 -35 9 -51 64 -119 104 -128
193 -268 277 -438 69 -141 166 -391 155 -402 -2 -2 -46 10 -97 26 -204 66
-357 185 -439 341 -55 105 -136 190 -217 228 -49 23 -71 27 -143 27 -101 0
-154 -20 -224 -85 -59 -55 -88 -105 -121 -215 -42 -141 -50 -144 -210 -95
-177 55 -283 35 -390 -74 -110 -112 -164 -246 -172 -431 -9 -191 27 -383 98
-532 46 -96 72 -123 123 -123 52 0 81 20 96 65 11 33 8 43 -29 128 -127 290
-118 592 22 744 55 60 84 63 213 23 88 -27 115 -32 183 -29 69 4 85 8 123 34
55 39 104 112 124 184 40 145 72 193 138 205 73 14 145 -37 204 -144 71 -130
148 -217 257 -296 115 -83 308 -163 447 -186 76 -12 70 -2 90 -143 6 -44 12
-179 13 -300 1 -228 6 -254 45 -275 33 -18 87 -12 116 14 33 28 42 81 43 256
3 403 -96 817 -281 1179 -95 185 -305 487 -361 518 -40 22 -86 16 -118 -16z"/>
</g>
</svg>
